<svg width="247" height="100" viewBox="0 0 247 100" fill="none" xmlns="http://www.w3.org/2000/svg">
<path d="M5.472 62.3333C4.768 62.3333 4.11733 62.1627 3.52 61.8213C2.944 61.48 2.48533 61.0213 2.144 60.4453C1.80267 59.848 1.632 59.1973 1.632 58.4933V57.5973H4.224V58.4933C4.224 58.8347 4.34133 59.1333 4.576 59.3893C4.832 59.624 5.13067 59.7413 5.472 59.7413H20.832C21.1733 59.7413 21.4613 59.624 21.696 59.3893C21.952 59.1333 22.08 58.8347 22.08 58.4933V53.3413C22.08 53 21.952 52.712 21.696 52.4773C21.4613 52.2427 21.1733 52.1253 20.832 52.1253H5.472C4.768 52.1253 4.11733 51.9547 3.52 51.6133C2.944 51.2507 2.48533 50.7813 2.144 50.2053C1.80267 49.6293 1.632 48.9893 1.632 48.2853V43.1333C1.632 42.4293 1.80267 41.7893 2.144 41.2133C2.48533 40.616 2.944 40.1467 3.52 39.8053C4.11733 39.464 4.768 39.2933 5.472 39.2933H20.832C21.536 39.2933 22.176 39.464 22.752 39.8053C23.3493 40.1467 23.8187 40.616 24.16 41.2133C24.5013 41.7893 24.672 42.4293 24.672 43.1333V44.0293H22.08V43.1333C22.08 42.792 21.952 42.504 21.696 42.2693C21.4613 42.0133 21.1733 41.8853 20.832 41.8853H5.472C5.13067 41.8853 4.832 42.0133 4.576 42.2693C4.34133 42.504 4.224 42.792 4.224 43.1333V48.2853C4.224 48.6267 4.34133 48.9147 4.576 49.1493C4.832 49.384 5.13067 49.5013 5.472 49.5013H20.832C21.536 49.5013 22.176 49.6827 22.752 50.0453C23.3493 50.3867 23.8187 50.8453 24.16 51.4213C24.5013 51.9973 24.672 52.6373 24.672 53.3413V58.4933C24.672 59.1973 24.5013 59.848 24.16 60.4453C23.8187 61.0213 23.3493 61.48 22.752 61.8213C22.176 62.1627 21.536 62.3333 20.832 62.3333H5.472ZM29.0005 62.3333V37.6933H31.6245V43.7733H44.0405C44.7445 43.7733 45.3845 43.9547 45.9605 44.3173C46.5578 44.6587 47.0272 45.128 47.3685 45.7253C47.7312 46.3013 47.9125 46.9413 47.9125 47.6453V62.3333H45.2885V47.6453C45.2885 47.304 45.1605 47.016 44.9045 46.7813C44.6698 46.5253 44.3818 46.3973 44.0405 46.3973H32.9045C32.5632 46.3973 32.2645 46.5253 32.0085 46.7813C31.7525 47.016 31.6245 47.304 31.6245 47.6453V62.3333H29.0005ZM55.2997 62.3333C54.5957 62.3333 53.9451 62.1627 53.3477 61.8213C52.7717 61.4587 52.3024 60.9893 51.9397 60.4133C51.5984 59.816 51.4277 59.1653 51.4277 58.4613V51.7413H67.6837V47.6453C67.6837 47.304 67.5557 47.016 67.2997 46.7813C67.0651 46.5253 66.7771 46.3973 66.4357 46.3973H51.4277V43.7733H66.4357C67.1611 43.7733 67.8117 43.9547 68.3877 44.3173C68.9851 44.6587 69.4544 45.128 69.7957 45.7253C70.1584 46.3013 70.3397 46.9413 70.3397 47.6453V62.3333H55.2997ZM55.2997 59.7093H67.6837V54.3653H54.0517V58.4613C54.0517 58.8027 54.1691 59.1013 54.4037 59.3573C54.6597 59.592 54.9584 59.7093 55.2997 59.7093ZM74.4502 62.3333V47.6453C74.4502 46.9413 74.6209 46.3013 74.9622 45.7253C75.3249 45.128 75.7942 44.6587 76.3702 44.3173C76.9676 43.9547 77.6182 43.7733 78.3222 43.7733H88.7542V46.3973H78.3222C77.9809 46.3973 77.6822 46.5253 77.4262 46.7813C77.1916 47.016 77.0742 47.304 77.0742 47.6453V62.3333H74.4502ZM95.6252 62.3333C94.9212 62.3333 94.2706 62.1627 93.6732 61.8213C93.0972 61.4587 92.6279 60.9893 92.2652 60.4133C91.9239 59.816 91.7532 59.1653 91.7532 58.4613V47.6453C91.7532 46.9413 91.9239 46.3013 92.2652 45.7253C92.6279 45.128 93.0972 44.6587 93.6732 44.3173C94.2706 43.9547 94.9212 43.7733 95.6252 43.7733H106.761C107.487 43.7733 108.137 43.9547 108.713 44.3173C109.311 44.6587 109.78 45.128 110.121 45.7253C110.484 46.3013 110.665 46.9413 110.665 47.6453V54.3653H94.3772V58.4613C94.3772 58.8027 94.4946 59.1013 94.7292 59.3573C94.9852 59.592 95.2839 59.7093 95.6252 59.7093H110.665V62.3333H95.6252ZM94.3772 51.7413H108.009V47.6453C108.009 47.304 107.881 47.016 107.625 46.7813C107.391 46.5253 107.103 46.3973 106.761 46.3973H95.6252C95.2839 46.3973 94.9852 46.5253 94.7292 46.7813C94.4946 47.016 94.3772 47.304 94.3772 47.6453V51.7413ZM118.71 62.3333C118.006 62.3333 117.355 62.1627 116.758 61.8213C116.182 61.48 115.723 61.0213 115.382 60.4453C115.04 59.848 114.87 59.1973 114.87 58.4933V57.5973H117.462V58.4933C117.462 58.8347 117.579 59.1333 117.814 59.3893C118.07 59.624 118.368 59.7413 118.71 59.7413H134.07C134.411 59.7413 134.699 59.624 134.934 59.3893C135.19 59.1333 135.318 58.8347 135.318 58.4933V53.3413C135.318 53 135.19 52.712 134.934 52.4773C134.699 52.2427 134.411 52.1253 134.07 52.1253H118.71C118.006 52.1253 117.355 51.9547 116.758 51.6133C116.182 51.2507 115.723 50.7813 115.382 50.2053C115.04 49.6293 114.87 48.9893 114.87 48.2853V43.1333C114.87 42.4293 115.04 41.7893 115.382 41.2133C115.723 40.616 116.182 40.1467 116.758 39.8053C117.355 39.464 118.006 39.2933 118.71 39.2933H134.07C134.774 39.2933 135.414 39.464 135.99 39.8053C136.587 40.1467 137.056 40.616 137.398 41.2133C137.739 41.7893 137.91 42.4293 137.91 43.1333V44.0293H135.318V43.1333C135.318 42.792 135.19 42.504 134.934 42.2693C134.699 42.0133 134.411 41.8853 134.07 41.8853H118.71C118.368 41.8853 118.07 42.0133 117.814 42.2693C117.579 42.504 117.462 42.792 117.462 43.1333V48.2853C117.462 48.6267 117.579 48.9147 117.814 49.1493C118.07 49.384 118.368 49.5013 118.71 49.5013H134.07C134.774 49.5013 135.414 49.6827 135.99 50.0453C136.587 50.3867 137.056 50.8453 137.398 51.4213C137.739 51.9973 137.91 52.6373 137.91 53.3413V58.4933C137.91 59.1973 137.739 59.848 137.398 60.4453C137.056 61.0213 136.587 61.48 135.99 61.8213C135.414 62.1627 134.774 62.3333 134.07 62.3333H118.71ZM146.014 62.3333C145.31 62.3333 144.659 62.1627 144.062 61.8213C143.486 61.4587 143.017 60.9893 142.654 60.4133C142.313 59.816 142.142 59.1653 142.142 58.4613V47.6453C142.142 46.9413 142.313 46.3013 142.654 45.7253C143.017 45.128 143.486 44.6587 144.062 44.3173C144.659 43.9547 145.31 43.7733 146.014 43.7733H160.99V46.3973H146.014C145.673 46.3973 145.374 46.5253 145.118 46.7813C144.883 47.016 144.766 47.304 144.766 47.6453V58.4613C144.766 58.8027 144.883 59.1013 145.118 59.3573C145.374 59.592 145.673 59.7093 146.014 59.7093H161.054V62.3333H146.014ZM168.663 62.3333C167.959 62.3333 167.308 62.1627 166.711 61.8213C166.135 61.4587 165.666 60.9893 165.303 60.4133C164.962 59.816 164.791 59.1653 164.791 58.4613V43.7733H167.415V58.4613C167.415 58.8027 167.532 59.1013 167.767 59.3573C168.023 59.592 168.322 59.7093 168.663 59.7093H179.799C180.14 59.7093 180.439 59.592 180.695 59.3573C180.951 59.1013 181.079 58.8027 181.079 58.4613V43.7733H183.703V58.4613C183.703 59.1653 183.522 59.816 183.159 60.4133C182.818 60.9893 182.348 61.4587 181.751 61.8213C181.175 62.1627 180.524 62.3333 179.799 62.3333H168.663ZM191.841 62.3333C191.137 62.3333 190.486 62.1627 189.889 61.8213C189.313 61.4587 188.844 60.9893 188.481 60.4133C188.14 59.816 187.969 59.1653 187.969 58.4613V37.6933H190.593V58.4613C190.593 58.8027 190.71 59.1013 190.945 59.3573C191.201 59.592 191.5 59.7093 191.841 59.7093H194.977V62.3333H191.841ZM198.649 69.6933V43.7733H213.689C214.393 43.7733 215.033 43.9547 215.609 44.3173C216.207 44.6587 216.676 45.128 217.017 45.7253C217.38 46.3013 217.561 46.9413 217.561 47.6453V58.4613C217.561 59.1653 217.38 59.816 217.017 60.4133C216.676 60.9893 216.207 61.4587 215.609 61.8213C215.033 62.1627 214.393 62.3333 213.689 62.3333H201.273V69.6933H198.649ZM202.553 59.7093H213.689C214.031 59.7093 214.319 59.592 214.553 59.3573C214.809 59.1013 214.937 58.8027 214.937 58.4613V47.6453C214.937 47.304 214.809 47.016 214.553 46.7813C214.319 46.5253 214.031 46.3973 213.689 46.3973H202.553C202.212 46.3973 201.913 46.5253 201.657 46.7813C201.401 47.016 201.273 47.304 201.273 47.6453V58.4613C201.273 58.8027 201.401 59.1013 201.657 59.3573C201.913 59.592 202.212 59.7093 202.553 59.7093ZM224.699 62.3333C223.974 62.3333 223.313 62.1627 222.715 61.8213C222.139 61.4587 221.681 60.9893 221.339 60.4133C220.998 59.816 220.827 59.1653 220.827 58.4613V37.6933H223.451V43.7733H231.483V46.3973H223.451V58.4613C223.451 58.8027 223.569 59.1013 223.803 59.3573C224.059 59.592 224.358 59.7093 224.699 59.7093H231.483V62.3333H224.699Z" fill="white"/>
<path d="M127.378 63.8271C131.459 75.4558 140.544 85.4764 152.949 92.0305C165.354 98.5847 180.236 101.228 194.836 99.4693C209.436 97.7109 222.763 91.6705 232.346 82.4684C241.929 73.2662 247.116 61.5266 246.947 49.4269C246.778 37.3271 241.263 25.6881 231.426 16.6685C221.589 7.64887 208.096 1.8606 193.451 0.377152C178.805 -1.1063 164.001 1.81573 151.782 8.60134C139.564 15.3869 130.762 25.5757 127.007 37.278L129.224 37.7563C132.837 26.494 141.309 16.6884 153.068 10.1579C164.827 3.62739 179.075 0.815228 193.17 2.2429C207.265 3.67058 220.25 9.24122 229.717 17.9217C239.185 26.6022 244.492 37.8036 244.655 49.4484C244.818 61.0933 239.825 72.3914 230.603 81.2476C221.38 90.1038 208.554 95.9171 194.503 97.6093C180.452 99.3016 166.129 96.758 154.191 90.4502C142.252 84.1425 133.509 74.4987 129.581 63.3073L127.378 63.8271Z" fill="white"/>
</svg>
